:SAMPLES-PER-SECOND 30
:FULLY-SPECIFIED
:DEGREES
203
root  60.1021 24.6316 -2.07736 -25.7865 -0.211156 -5.25665
RightUpLeg  -53.0291 -15.0868 2.15862
RightLeg  77.3541 -1.35445 -8.62765
RightFoot  0.683094 0.412981 -3.92629
RightToes  0.000482159 0.542163 -0.142577
Spine  43.3042 -2.41531 10.2668
Spine1  0.607486 0.916388 -1.14806
HEad  -20.9316 1.4037 2.08976
LeftShoulder1  10.2507 -15.5299 -46.9952
LeftArm  -4.15236 -0.496516 -23.0874
LeftForeArm  33.4806 -27.1919 -4.05821
LeftHand  -0.25398 0.0180481 5.50724
RightShoulder  6.13459 11.1354 35.9228
RightArm  -7.34125 2.36217 30.7684
RightForeArm  3.5243 21.6765 4.71285
RightHand  -2.53569 8.48209 -21.4185
LeftUpLeg  -55.0792 7.06523 2.86428
LeftLeg  75.5714 1.1534 6.42766
LeftFoot  3.99885 -0.6625 4.73573
LeftToes  1.06245e-005 4.65855e-005 -8.18503e-006
204
root  60.1027 24.6404 -2.06206 -25.606 -0.260332 -5.28438
RightUpLeg  -53.1954 -15.1415 2.28252
RightLeg  77.3404 -1.35161 -8.60138
RightFoot  0.64533 0.418182 -4.00236
RightToes  0.000482159 0.542163 -0.142577
Spine  43.2887 -2.43601 10.2277
Spine1  0.703332 0.89049 -1.20762
HEad  -20.5332 1.46795 1.77468
LeftShoulder1  10.2591 -15.5338 -47.0247
LeftArm  -4.44204 -1.76283 -22.8289
LeftForeArm  34.2591 -29.0428 -4.42424
LeftHand  -0.25398 0.0180481 5.50724
RightShoulder  6.00595 10.9507 35.5755
RightArm  -6.88333 3.05306 31.0528
RightForeArm  4.00812 23.1284 4.76516
RightHand  -2.48835 8.20935 -21.435
LeftUpLeg  -55.247 6.92202 2.93767
LeftLeg  75.5941 1.18397 6.57664
LeftFoot  3.98159 -0.65194 4.66408
LeftToes  1.06245e-005 4.65855e-005 -8.18503e-006
205
root  60.1055 24.648 -2.05778 -25.4617 -0.273306 -5.31551
RightUpLeg  -53.3276 -15.1384 2.36744
RightLeg  77.3133 -1.36712 -8.6591
RightFoot  0.628151 0.421516 -4.05252
RightToes  0.000482159 0.542163 -0.142577
Spine  43.3053 -2.39292 10.0297
Spine1  0.856647 0.803024 -0.921481
HEad  -20.2068 1.54746 1.21576
LeftShoulder1  10.3177 -15.5423 -47.2778
LeftArm  -4.28722 -2.96635 -22.4376
LeftForeArm  34.699 -30.1918 -4.66051
LeftHand  -0.25398 0.0180481 5.50724
RightShoulder  5.83882 10.7308 35.0551
RightArm  -6.63594 3.78948 31.489
RightForeArm  4.36887 24.0779 4.9205
RightHand  -2.46788 8.02687 -21.5396
LeftUpLeg  -55.3776 6.67275 3.01831
LeftLeg  75.5866 1.22176 6.74183
LeftFoot  4.02241 -0.627846 4.47143
LeftToes  1.06245e-005 4.65855e-005 -8.18503e-006
206
root  60.1102 24.6585 -2.05553 -25.3197 -0.257765 -5.33952
RightUpLeg  -53.4449 -15.0789 2.40109
RightLeg  77.2728 -1.38706 -8.72827
RightFoot  0.651485 0.419203 -4.01674
RightToes  0.000482159 0.542163 -0.142577
Spine  43.4151 -2.47593 9.93338
Spine1  0.743617 0.687099 -0.944282
HEad  -19.7734 1.59131 0.70627
LeftShoulder1  10.3292 -15.6126 -47.1536
LeftArm  -3.66285 -3.82254 -22.3544
LeftForeArm  34.891 -30.5386 -4.73003
LeftHand  -0.25398 0.0180481 5.50724
RightShoulder  5.7859 10.6964 34.7857
RightArm  -6.28745 4.17955 31.8195
RightForeArm  4.40681 24.5431 5.02534
RightHand  -2.42322 7.90034 -21.3571
LeftUpLeg  -55.4868 6.41935 3.07038
LeftLeg  75.5465 1.25618 6.87348
LeftFoot  4.06075 -0.601543 4.26418
LeftToes  1.06245e-005 4.65855e-005 -8.18503e-006
207
root  60.1161 24.6761 -2.05039 -25.1559 -0.316501 -5.3201
RightUpLeg  -53.5615 -14.8706 2.41068
RightLeg  77.2051 -1.41245 -8.80205
RightFoot  0.704044 0.409292 -3.86354
RightToes  0.000482159 0.542163 -0.142577
Spine  43.5175 -2.60244 9.88648
Spine1  0.497096 0.593566 -1.21269
HEad  -19.2963 1.81304 0.249867
LeftShoulder1  10.2961 -15.6969 -46.7874
LeftArm  -2.76986 -4.38286 -22.5591
LeftForeArm  34.6907 -30.0858 -4.63737
LeftHand  -0.25398 0.0180481 5.50724
RightShoulder  5.85477 10.8836 34.7345
RightArm  -5.76736 4.2343 31.9944
RightForeArm  4.4077 24.5329 5.02283
RightHand  -2.37806 7.83313 -21.0777
LeftUpLeg  -55.5875 6.33623 3.09137
LeftLeg  75.4896 1.28619 6.97521
LeftFoot  4.06385 -0.587945 4.16302
LeftToes  1.06245e-005 4.65855e-005 -8.18503e-006
208
root  60.1231 24.6965 -2.04465 -24.9963 -0.450905 -5.27115
RightUpLeg  -53.6662 -14.5678 2.42633
RightLeg  77.1229 -1.44479 -8.89783
RightFoot  0.75434 0.399613 -3.71428
RightToes  0.000482159 0.542163 -0.142577
Spine  43.5317 -2.61203 9.72739
Spine1  0.390454 0.529173 -1.2405
HEad  -18.9034 2.21748 -0.18079
LeftShoulder1  10.3122 -15.7485 -46.7332
LeftArm  -1.69166 -4.88611 -22.6541
LeftForeArm  33.9764 -28.9249 -4.41355
LeftHand  -0.25398 0.0180481 5.50724
RightShoulder  5.91137 11.0856 34.5607
RightArm  -4.94497 4.22924 32.2076
RightForeArm  4.37793 24.0292 4.91354
RightHand  -2.39042 7.89997 -21.0811
LeftUpLeg  -55.6778 6.41802 3.1011
LeftLeg  75.443 1.30734 7.04293
LeftFoot  4.05434 -0.583754 4.13406
LeftToes  1.06245e-005 4.65855e-005 -8.18503e-006
